<svg width="41" height="47" viewBox="0 0 41 47" fill="none" xmlns="http://www.w3.org/2000/svg">
<path d="M18.1875 46.375C13.0625 45.9583 8.75 43.8542 5.25 40.0625C1.75 36.2708 0 31.7708 0 26.5625C0 23.3542 0.739583 20.3333 2.21875 17.5C3.69792 14.6667 5.77083 12.3542 8.4375 10.5625L11.125 13.25C8.79167 14.625 6.97917 16.5104 5.6875 18.9062C4.39583 21.3021 3.75 23.8542 3.75 26.5625C3.75 30.7292 5.125 34.3333 7.875 37.375C10.625 40.4167 14.0625 42.1667 18.1875 42.625V46.375ZM21.9375 46.375V42.625C26.1042 42.125 29.5417 40.3646 32.25 37.3438C34.9583 34.3229 36.3125 30.7292 36.3125 26.5625C36.3125 22.0208 34.7396 18.1771 31.5938 15.0312C28.4479 11.8854 24.6042 10.3125 20.0625 10.3125H18.8125L22.5625 14.0625L19.875 16.75L11.5625 8.4375L19.875 0.125L22.5625 2.8125L18.8125 6.5625H20.0625C25.6458 6.5625 30.375 8.51042 34.25 12.4062C38.125 16.3021 40.0625 21.0208 40.0625 26.5625C40.0625 31.7708 38.3229 36.2708 34.8438 40.0625C31.3646 43.8542 27.0625 45.9583 21.9375 46.375Z" fill="#DB6260"/>
</svg>
